<svg width="22" height="28" viewBox="0 0 22 28" fill="none" xmlns="http://www.w3.org/2000/svg">
<g filter="url(#filter0_d_122_5)">
<path d="M14.2534 4.47019C14.9466 3.64286 15.4273 2.51367 15.4273 1.3733C15.4273 1.21677 15.4161 1.06025 15.3826 0.937271C14.2758 0.981992 12.9342 1.67516 12.1292 2.61429C11.5031 3.32982 10.9217 4.47019 10.9217 5.61056C10.9217 5.78944 10.9441 5.95715 10.9665 6.01305C11.0335 6.02423 11.1453 6.04659 11.2571 6.04659C12.2634 6.04659 13.5155 5.37578 14.2534 4.47019ZM15.0472 6.28137C13.3702 6.28137 12.0174 7.29876 11.1453 7.29876C10.2174 7.29876 9.00994 6.34845 7.55652 6.34845C4.79503 6.34845 2 8.62919 2 12.9224C2 15.6056 3.02857 18.4342 4.31429 20.2565C5.40994 21.7994 6.37143 23.0627 7.74658 23.0627C9.12174 23.0627 9.72547 22.1571 11.4137 22.1571C13.1466 22.1571 13.5267 23.0404 15.0472 23.0404C16.5453 23.0404 17.5404 21.6652 18.4795 20.3124C19.5416 18.7584 19.9776 17.2491 20 17.1708C19.9106 17.1484 17.0373 15.9745 17.0373 12.6988C17.0373 9.85901 19.2957 8.58447 19.4186 8.48385C17.9429 6.34845 15.6733 6.28137 15.0472 6.28137Z" fill="white"/>
</g>
<defs>
<filter id="filter0_d_122_5" x="0" y="0.937271" width="22" height="26.1255" filterUnits="userSpaceOnUse" color-interpolation-filters="sRGB">
<feFlood flood-opacity="0" result="BackgroundImageFix"/>
<feColorMatrix in="SourceAlpha" type="matrix" values="0 0 0 0 0 0 0 0 0 0 0 0 0 0 0 0 0 0 127 0" result="hardAlpha"/>
<feOffset dy="2"/>
<feGaussianBlur stdDeviation="1"/>
<feColorMatrix type="matrix" values="0 0 0 0 1 0 0 0 0 1 0 0 0 0 1 0 0 0 0.51 0"/>
<feBlend mode="normal" in2="BackgroundImageFix" result="effect1_dropShadow_122_5"/>
<feBlend mode="normal" in="SourceGraphic" in2="effect1_dropShadow_122_5" result="shape"/>
</filter>
</defs>
</svg>
